<svg xmlns="http://www.w3.org/2000/svg" viewBox="0 0 437.76 436.56" xmlns:v="https://vecta.io/nano"><path d="M135.73 401.1h-.46a1 1 0 0 1 .22-.25l4.7-4.59 7.82-7.61 2.25-2s1.6-1.33 2.36-2.06l5.25-5.19 3.28-3.25c.44-.43.93-.84 1.44-1.26l.49-.41a2.65 2.65 0 0 0 .85-3.18l-.82-2.53-.65-2q-1.87-5.49-3.78-11l-4-11.4a5.27 5.27 0 0 1-.23-.91.48.48 0 0 1 .23-.61l15.49-12.3 18.05-14.8a19.38 19.38 0 0 0 2.68-2.92l.26-.33a2.14 2.14 0 0 0 .48-1.74 2.31 2.31 0 0 0-1.16-1.57l-10.14-6-6.75-3.88-6-3.44-9.27-5.45-.52-.33.38-.49a32.39 32.39 0 0 0 3.46-5.78l.92-1.8.47-.81s.36-.61.53-.93l3.66-6.92 6.21-11.71 2.5-4.58 2.27-4.17q4.43-8.25 8.81-16.53l1.82-3.58 1.82-3.57a13.52 13.52 0 0 1 .92-1.41l.6-.87a10.05 10.05 0 0 0 .31-.56h.52a31.35 31.35 0 0 1 6.43.93 37.08 37.08 0 0 0 7.94.88 36.09 36.09 0 0 0 8.08-.93 19.2 19.2 0 0 0 3-1.05l1.8-.69a16.18 16.18 0 0 0 4.31-2.44 24.84 24.84 0 0 1 2.25-1.48 7 7 0 0 0 1.83-1.71l.2-.23 2.15-2.6 1.85-2.24 1.13-1.23.36.63a26.72 26.72 0 0 0 2.26 3.5 51.06 51.06 0 0 0 4.92 5.17c2.18 2.08 5 2.71 7.46 3.15a21 21 0 0 0 3.68.28h2.11 2.06.15a6.42 6.42 0 0 0 3.42-.95l2.41-1.52 1.81-1.15a9.09 9.09 0 0 1 .86-.49 2.12 2.12 0 0 1-.49.6l-10.06 10.6q-2.9 3.12-5.75 6.26-1.87 2.09-3.78 4.14-2.82 3.07-5.66 6.14l-6.57 7.12-4.5 4.93-5.93 6.48a32.9 32.9 0 0 0-4.35 6.33l-.41.71.62.54 2.23 2 4.91 4.27 16.05 13.35 6.8 5.54 6.25 5.08a10.87 10.87 0 0 1 2.12 2.11c.35.5.35.7.34.75s-.1.28-.74.71l-2.2 1.47-7.28 4.95-7.68 5.38q-2.92 2.09-5.88 4.14-3.34 2.34-6.71 4.66-4 2.78-8 5.57-4 2.79-8.08 5.71l-6.92 4.9-6.69 4.68q-5.19 3.63-10.37 7.28l-7.53 5.72a3 3 0 0 0-.9 1.95 12.91 12.91 0 0 0 .93 5.37l.65 2.2 1.08 4.18.85 3.24a15.63 15.63 0 0 1 .32 2.36v.37c0 .16 0 .32-.36.48l-.83.36-1.33.55-14.46 5.35-8.79 3.24q-7.87 2.91-15.75 5.8a44.45 44.45 0 0 1-4.31 1.35 2.32 2.32 0 0 1-.58-.03z" fill="#e52a20"/><path d="M233.74 215.31a24.4 24.4 0 0 0 2 3.08 53 53 0 0 0 5 5.26c2.39 2.27 5.37 2.95 8 3.41a20.9 20.9 0 0 0 3.85.3h2.14 2 .27a7.52 7.52 0 0 0 2.79-.53l-5.6 5.94-5.76 6.28-3.77 4.13-5.76 6.24-6.48 7-4.5 4.93-5.93 6.48a34.3 34.3 0 0 0-4.48 6.52l-.81 1.42 1.23 1.07 2.23 2 4.93 4.29 16.06 13.35 6.83 5.57q3.12 2.52 6.21 5.05a11.15 11.15 0 0 1 1.93 1.88l-.12.02-2.19 1.47-7.3 5-7.66 5.37q-2.94 2.08-5.9 4.15l-6.66 4.62-8.05 5.61-8.24 5.68-6.86 4.85-6.68 4.67-10.38 7.3-7.56 5.74a3.86 3.86 0 0 0-1.29 2.64 14.16 14.16 0 0 0 1 5.78l.62 2.11 1.09 4.22.85 3.22a15 15 0 0 1 .29 2.17l-.56.24-1.27.53-15.81 5.84-2.41.89-4.9 1.81q-7.93 2.94-15.88 5.85l-1.88.65 2.53-2.41 7.81-7.59 2.19-1.91s1.62-1.36 2.41-2.11l5.28-5.2q1.62-1.63 3.26-3.24c.41-.41.88-.8 1.38-1.21l.49-.41a3.65 3.65 0 0 0 1.14-4.3l-.8-2.47-.65-2.06-3.8-11-.6-1.74-1.6-4.57-1.75-5.05c-.06-.17-.11-.34-.16-.54l15.32-12.17 18.07-14.81a19.43 19.43 0 0 0 2.83-3.08l.25-.31a3.16 3.16 0 0 0 .69-2.55 3.35 3.35 0 0 0-1.63-2.25l-10.15-6q-3.39-2-6.8-3.91-3-1.7-6-3.42l-8.82-5.18a34.59 34.59 0 0 0 3.26-5.54l.92-1.79.44-.78s.38-.63.55-1q1.84-3.46 3.67-6.93 3.09-5.85 6.2-11.7l2.49-4.56 2.28-4.18 8.81-16.55 1.84-3.6 1.81-3.54a11.79 11.79 0 0 1 .84-1.3l.62-.91a.41.41 0 0 0 .07-.11 30.09 30.09 0 0 1 6.08.91 37.92 37.92 0 0 0 8.16.9 36.42 36.42 0 0 0 8.31-1 19.66 19.66 0 0 0 3.14-1.09l1.74-.67a17.29 17.29 0 0 0 4.57-2.58l2.15-1.42a7.57 7.57 0 0 0 2.12-1.94l.19-.22 2.17-2.62 1.84-2.23.17-.19m.52-3.09h-.37l-1.85 2-4 4.84a7.17 7.17 0 0 1-1.76 1.72c-2.17 1.21-4 3-6.38 3.84-1.59.52-3.09 1.34-4.7 1.71a34.49 34.49 0 0 1-7.86.91 36.25 36.25 0 0 1-7.73-.85 31 31 0 0 0-6.64-1h-1.09a9.84 9.84 0 0 1-.52 1l-1.56 2.36-3.65 7.15q-4.36 8.28-8.8 16.53l-4.77 8.75-9.87 18.63-1 1.74a45.22 45.22 0 0 1-4.28 7.42c-1 1.24-1 1.47.4 2.31q4.62 2.78 9.29 5.45l12.75 7.33q5.08 3 10.13 6a1.16 1.16 0 0 1 .41 1.83 20.17 20.17 0 0 1-2.8 3.1q-9 7.47-18 14.79l-15.47 12.3a1.46 1.46 0 0 0-.61 1.57 7.88 7.88 0 0 0 .28 1.06q1.66 4.8 3.35 9.62l4.4 12.74 1.47 4.57a1.67 1.67 0 0 1-.56 2.08l-2 1.72-8.52 8.43c-1.46 1.41-3.13 2.61-4.6 4l-12.53 12.2a1.56 1.56 0 0 0-.39 1.93l1.33.05a3.59 3.59 0 0 0 .81-.08 44.22 44.22 0 0 0 4.41-1.38q10.41-3.81 20.79-7.66l18.27-6.65 2.19-.92a1.4 1.4 0 0 0 1-1.49 19.85 19.85 0 0 0-.36-2.89l-1.94-7.4s-1.8-4.69-1.56-7.26a1.94 1.94 0 0 1 .53-1.26l7.49-5.68 17.05-12 15-10.6 14.72-10.23 13.55-9.52 9.46-6.41c1.29-.86 1.56-1.59.67-2.86a11.76 11.76 0 0 0-2.31-2.31l-13-10.63q-8.06-6.63-16-13.33l-7.12-6.22a32 32 0 0 1 4.21-6.15l10.44-11.41 12.23-13.26 9.52-10.39 10.05-10.59c.92-.95 1-1.18.48-2.81l-2.1 1.15-4.2 2.66a5.48 5.48 0 0 1-2.88.81h-.18l-4.17.08a19.91 19.91 0 0 1-3.51-.27c-2.57-.45-5-1.06-6.95-2.89a51.15 51.15 0 0 1-4.82-5.06 46.64 46.64 0 0 1-3.07-4.92z" fill="#a7271f"/><path d="M343.27 129.36a16.45 16.45 0 0 1-.82 6.15c-.36 1.15-.27 2.43-.57 3.61-1.18 4.67-2.39 9.34-4.84 13.56a8.18 8.18 0 0 0-.88 1.81 2.46 2.46 0 0 0 0 1.52 1.33 1.33 0 0 0 1.55.71c2-.3 4.07-.47 6-.95 2.52-.61 4.9-.08 7.32.41 1 .21 2.09.14 3.07.42a25 25 0 0 1 4.71 1.7 67.49 67.49 0 0 1 13 8.92 15.11 15.11 0 0 1 4.38 6.87c.65 2 1.53 3.94 2 6a42.44 42.44 0 0 1 1.41 8.53 35.54 35.54 0 0 1-4.2 16.88 25 25 0 0 1-10.07 10.93c-1.56.88-3.07 1.87-4.64 2.74a28.35 28.35 0 0 1-12.54 3.33 34.77 34.77 0 0 1-3.82 0 6.16 6.16 0 0 0-3.88 1.12c-2.16 1.42-4.29 2.92-6.55 4.2a33.22 33.22 0 0 1-5.49 2.43 62.73 62.73 0 0 1-7.81 2.26c-5.86 1.21-11.51.24-17.05-1.87a32.44 32.44 0 0 1-11.15-7.19c-.33-.32-.68-.62-1-.9a1.79 1.79 0 0 0-2.36-.11 3.21 3.21 0 0 1-4.2.1 3.82 3.82 0 0 0-3.19-.34 2.63 2.63 0 0 1-3-1.45c-1-2.77-2.93-4.93-4.74-7.13a52.25 52.25 0 0 0-8.23-8.19 10.33 10.33 0 0 1-3.19-4.06 22.59 22.59 0 0 0-1.41-2.88 9.88 9.88 0 0 0-1.62-2.07 3.58 3.58 0 0 0-4.4-.5 2.65 2.65 0 0 1-3.69-.58 20.75 20.75 0 0 0-9.52-6.55l-4.32-1.52a5.81 5.81 0 0 1-3-2.66 19.29 19.29 0 0 0-3.9-5.16 4.34 4.34 0 0 0-3.2-1.09 3.56 3.56 0 0 1-3.58-2.36c-1-2.31-1.83-4.65-2.81-6.95a22.75 22.75 0 0 0-1.9-3.75 20 20 0 0 0-2.46-2.67c-.27-.28-.69-.44-.91-.75-.4-.54-1-1.2-.94-1.71a2.2 2.2 0 0 1 1.85-1.68 10 10 0 0 0 5.58-3.11 7.54 7.54 0 0 0 2-4.89 76.91 76.91 0 0 0-.16-9.24c-.53-5.09-3.08-8.87-8-10.79-2.24-.88-4.45-1.92-6.9-2.06a20 20 0 0 0-3.46 0 3 3 0 0 1-3.37-2c-.6-2.49-1.13-5-1.48-7.54a36.67 36.67 0 0 0-3.17-10.47 12.6 12.6 0 0 0-2.18-2.65 12.54 12.54 0 0 1-1-.94c-.43-.62-.61-1.36.05-1.91 1.07-.9 2.19-1.76 3.34-2.55a3.92 3.92 0 0 1 3.85-.44 6.33 6.33 0 0 0 5.53-.36 12.2 12.2 0 0 1 9.99-.54c1.67.62 3 .23 3.77-1.39 2.12-4.29 5.88-6.09 10.27-7 1.85-.37 3.72-.67 5.59-.91a12 12 0 0 1 5.9 1c2.61 1 4.39.29 6.36-1.57 3.87-3.65 8.26-6.61 13.57-7.81 3.45-.77 6.92-.35 10.37.24a31.18 31.18 0 0 1 12.15 5.07c.88.59 1.65 1.34 2.49 2a3.94 3.94 0 0 0 3.55.76c4.54-1.18 9.19-1.08 13.82-1.18 5.5-.11 10.47 1.66 15.3 4.06a46.82 46.82 0 0 1 11.46 8.13 27.24 27.24 0 0 1 6.75 10l2.2 5.52a36 36 0 0 1 2.42 13.44zm-125.48 31.13c3.86 3.48 4.07 4.88 5.79 8.74.78 1.75 1.44 3.56 2.11 5.36a2.37 2.37 0 0 0 2.59 1.71 4.87 4.87 0 0 1 3.73 1.45 18.78 18.78 0 0 1 4.09 5.13 4.67 4.67 0 0 0 3.22 2.62 5.55 5.55 0 0 1 .87.29c3 1.11 6 2 8.57 4.05 1.38 1.09 2.57 2.42 3.9 3.58.34.3 1 .63 1.3.48a8.26 8.26 0 0 1 3.86-.52 4.4 4.4 0 0 1 3 1.22c1.94 1.61 2.78 3.88 3.9 6a8.84 8.84 0 0 0 2.05 2.74 67.14 67.14 0 0 1 9.23 9.36 56.09 56.09 0 0 1 4.34 6.32c.45.74.81 1.06 1.68 1a6.59 6.59 0 0 1 4.42.76 1.46 1.46 0 0 0 1.17-.14c2.24-1.2 4-1.07 5.72.68a33.22 33.22 0 0 0 14.49 8.41c4.07 1.19 8.19 1.8 12.37.72 2.92-.75 5.8-1.68 8.67-2.62a16.34 16.34 0 0 0 3.4-1.56c2.44-1.5 4.84-3.08 7.23-4.67a6.74 6.74 0 0 1 3.86-1.19 104.3 104.3 0 0 0 6.38-.21 21.06 21.06 0 0 0 6.75-1.55 73.89 73.89 0 0 0 8.85-4.77 20.22 20.22 0 0 0 7.31-7.78 34.05 34.05 0 0 0 4.36-11.79 37.92 37.92 0 0 0 .57-6.71 22.64 22.64 0 0 0-1.12-5.53c-.92-3.09-1.91-6.18-3.09-9.17a10.09 10.09 0 0 0-3.51-4.62q-5.5-3.87-11.14-7.55a16.46 16.46 0 0 0-7.24-2.41c-1.33-.14-2.64-.46-4-.66a5.86 5.86 0 0 0-1.62 0l-9.42 1.19c-1.22.12-2.63-1.49-2.76-2.71a7.06 7.06 0 0 1 1.28-4.39c2.44-4.22 3.7-8.88 4.87-13.56.53-2.12.86-4.29 1.28-6.44a3.47 3.47 0 0 0 .06-.45 34.66 34.66 0 0 0-2.42-14.42l-2.2-5.54a24.56 24.56 0 0 0-5.91-9.06 45.83 45.83 0 0 0-12.22-8.47c-4.61-2.2-9.34-3.69-14.5-3.54a62.64 62.64 0 0 0-11.82 1.16c-2.36.52-4.75.3-6.59-1.7a7.44 7.44 0 0 0-1.41-1.16 33.14 33.14 0 0 0-13.08-5.19 19.15 19.15 0 0 0-13.4 2.36 40.32 40.32 0 0 0-8.36 6.26 4.61 4.61 0 0 1-3.52 1.42c-2.08 0-3.91-.91-5.88-1.24a9.23 9.23 0 0 0-2.51-.36 49.63 49.63 0 0 0-6 1c-3.53.85-6.63 2.24-8.39 5.83a4.79 4.79 0 0 1-6.37 2.4 9.57 9.57 0 0 0-8.37.52 9 9 0 0 1-7.18.43 1.73 1.73 0 0 0-1.13-.09c-1 .55-2 1.2-3.26 2a22.65 22.65 0 0 1 1.7 1.51 7.63 7.63 0 0 1 1.3 1.76 38.1 38.1 0 0 1 3.11 9.73c.43 2.65.89 5.29 1.43 7.92.27 1.3.59 1.51 1.92 1.43a23.94 23.94 0 0 1 10.14 1.74 16.7 16.7 0 0 1 6.62 4.58 12.76 12.76 0 0 1 3.35 8c.19 3.6.19 7.2.15 10.8a7.8 7.8 0 0 1-2.07 5.07 11.5 11.5 0 0 1-6.5 4.04z" fill="#1d1d1b"/><path d="M217.79 160.49a11.5 11.5 0 0 0 6.5-4.07 7.8 7.8 0 0 0 2.07-5.07l-.15-10.8a12.76 12.76 0 0 0-3.35-8 16.7 16.7 0 0 0-6.62-4.58 23.94 23.94 0 0 0-10.09-1.79c-1.33.08-1.65-.13-1.92-1.43l-1.43-7.92a38.1 38.1 0 0 0-3.11-9.73 7.63 7.63 0 0 0-1.3-1.76 22.65 22.65 0 0 0-1.7-1.51l3.26-2a1.73 1.73 0 0 1 1.13.09 9 9 0 0 0 7.18-.43 9.57 9.57 0 0 1 8.37-.52 4.79 4.79 0 0 0 6.37-2.4c1.76-3.59 4.86-5 8.39-5.83a49.63 49.63 0 0 1 6-1 9.23 9.23 0 0 1 2.51.36c2 .33 3.8 1.27 5.88 1.24a4.61 4.61 0 0 0 3.47-1.34 40.32 40.32 0 0 1 8.42-6.26 19.15 19.15 0 0 1 13.4-2.36 33.14 33.14 0 0 1 13.08 5.19 7.44 7.44 0 0 1 1.41 1.16c1.84 2 4.23 2.22 6.59 1.7A62.64 62.64 0 0 1 304 90.25c5.16-.15 9.89 1.34 14.5 3.54a45.83 45.83 0 0 1 12.22 8.47 24.56 24.56 0 0 1 5.91 9.06c.7 1.86 1.46 3.69 2.2 5.54a34.66 34.66 0 0 1 2.42 14.42 3.47 3.47 0 0 1-.06.45c-.42 2.15-.75 4.32-1.28 6.44-1.17 4.68-2.43 9.34-4.87 13.56a7.06 7.06 0 0 0-1.28 4.39c.13 1.22 1.54 2.83 2.76 2.71 3.14-.33 6.28-.81 9.42-1.19a5.86 5.86 0 0 1 1.62 0c1.32.2 2.63.52 4 .66a16.46 16.46 0 0 1 7.24 2.41q5.64 3.68 11.14 7.55a10.09 10.09 0 0 1 3.51 4.62c1.18 3 2.17 6.08 3.09 9.17a22.64 22.64 0 0 1 1.12 5.53 37.92 37.92 0 0 1-.57 6.71 34.05 34.05 0 0 1-4.36 11.79 20.22 20.22 0 0 1-7.31 7.78 73.89 73.89 0 0 1-8.85 4.77 21.06 21.06 0 0 1-6.75 1.55 104.3 104.3 0 0 1-6.38.21 6.74 6.74 0 0 0-3.86 1.19l-7.23 4.67a16.34 16.34 0 0 1-3.4 1.56c-2.87.94-5.75 1.87-8.67 2.62-4.18 1.08-8.3.47-12.37-.72a33.22 33.22 0 0 1-14.49-8.41c-1.74-1.75-3.48-1.88-5.72-.68a1.46 1.46 0 0 1-1.17.14A6.59 6.59 0 0 0 282 220c-.87.06-1.23-.26-1.68-1a56.09 56.09 0 0 0-4.32-6.3 67.14 67.14 0 0 0-9.28-9.34 8.84 8.84 0 0 1-2.05-2.74c-1.12-2.14-2-4.41-3.9-6a4.4 4.4 0 0 0-3-1.22 8.26 8.26 0 0 0-3.86.52c-.28.15-1-.18-1.3-.48-1.33-1.16-2.52-2.49-3.9-3.58-2.53-2-5.6-2.94-8.57-4.05a5.55 5.55 0 0 0-.87-.29 4.67 4.67 0 0 1-3.22-2.62 18.78 18.78 0 0 0-4.09-5.13 4.87 4.87 0 0 0-3.73-1.45 2.37 2.37 0 0 1-2.59-1.71c-.67-1.8-1.33-3.61-2.11-5.36-1.67-3.88-1.88-5.25-5.74-8.76z" fill="#9b9a9d"/><path d="M63.66 190.79l1.27-6.45a18.86 18.86 0 0 1 4.92-10 2.5 2.5 0 0 1 .33-.32c4.36-3.08 8.92-5.66 14.47-5.75 1.75 0 2.53-1.34 1.92-3a58.79 58.79 0 0 1-2.45-7.36 23.52 23.52 0 0 1-.11-5.18c0-4 1.84-7.47 3.59-10.93a23.61 23.61 0 0 1 3.71-6.06 24.51 24.51 0 0 1 10.58-6.31c2.06-.65 4.14-1.21 6.23-1.75a21.2 21.2 0 0 1 2.28-.24 2.67 2.67 0 0 0 2.45-3.16c-.66-6.82 3.63-13.46 9.71-14.72a15.6 15.6 0 0 1 9.1.41 3.67 3.67 0 0 0 3.87-.51 37 37 0 0 0 4.11-3.34c2.53-2.6 5.72-4.15 8.79-5.88 3.43-1.93 6.92-3.76 10.44-5.52a17.71 17.71 0 0 1 4-1.32c2.84-.65 5.7-1.33 8.59-1.74a65.28 65.28 0 0 1 8.72-.69 23.9 23.9 0 0 1 6.3.83c4.23 1.2 7.11 4.2 9.52 7.77a35.33 35.33 0 0 1 4.05 8.28c.68 2 2 2.55 3.9 1.81 5.57-2.17 10.59-1 15 3.38a16 16 0 0 1 4.37 9.55 5.66 5.66 0 0 0 .4 1.86 3.32 3.32 0 0 0 3.09 1.88 41.56 41.56 0 0 1 8.21.38 21.4 21.4 0 0 1 13.42 8.29c1.51 2.05 2.16 4.49 3 6.83 1.67 4.44 1.75 9 1.47 13.64a2.7 2.7 0 0 1-.15.8 3.41 3.41 0 0 0 1.12 3.88 16.35 16.35 0 0 1 3.75 5.27 8.85 8.85 0 0 1-3.18 11.13 8.46 8.46 0 0 0-1 .67 1.58 1.58 0 0 0 .42 2.74l5.15 2.55c1.69.89 1.86 2.4.25 3.49-1.36.92-2.78 1.75-4.21 2.58a4 4 0 0 1-3.36.39 12.91 12.91 0 0 0-9 .49 12.48 12.48 0 0 1-6.88.26 15.43 15.43 0 0 0-8.63.79c-5.77 2.25-11.49 4.62-17.2 7a16.91 16.91 0 0 0-2.79 1.72 7.86 7.86 0 0 1-4 1.63 5.11 5.11 0 0 0-2 .61c-4.52 2.39-9.52 3.4-14.31 5a33 33 0 0 0-9.62 4.8 13.19 13.19 0 0 1-6.22 2.88 19.79 19.79 0 0 0-2.58.63 5.9 5.9 0 0 0-4.26 4.12c-1.17 3.23-2.42 6.45-3.84 9.57a8.27 8.27 0 0 1-7.65 5.08 3.49 3.49 0 0 1-1.95-.64 3.8 3.8 0 0 0-4.66.06 12.82 12.82 0 0 1-6.21 2 4.85 4.85 0 0 0-1.6.37c-3.53 1.59-7.26 1.69-11 1.51-2.8-.13-5.64 0-8.41-.39a34.79 34.79 0 0 1-7.21-1.88 59.9 59.9 0 0 1-7.57-3.43 43.33 43.33 0 0 1-5.23-3.5 50.53 50.53 0 0 1-8.79-8.12 47.42 47.42 0 0 1-3.63-5.28 6.63 6.63 0 0 0-4.85-3.35 27.11 27.11 0 0 1-5.52-1.25 14.43 14.43 0 0 1-6.88-5.12 32.55 32.55 0 0 1-2.21-4.25c-.19-.38-.27-.82-.48-1.19a23.8 23.8 0 0 1-2.66-7.45 1.19 1.19 0 0 0-.17-.31zm194.34-6.3l-1.57-.91a17.18 17.18 0 0 0-2.63-1.27 5.63 5.63 0 0 1-2.53-1.74c-.69-.75-.81-3.21-.12-3.95a10.36 10.36 0 0 1 2.06-1.8 6.57 6.57 0 0 0 2.23-8.93 19.78 19.78 0 0 0-3.62-4.82 3.6 3.6 0 0 1-1.24-3.12l.41-3.53a27.07 27.07 0 0 0-1.61-12c-.79-2.25-1.45-4.58-3-6.47-3.79-4.71-8.89-7-14.8-7.61-2-.21-4.15 0-6.22-.07-1.53 0-3.7-2-3.94-3.57s-.47-3-.83-4.41c-1.6-6.61-9.37-12-16.18-8.53-2.76 1.4-5.17 0-6.34-2.94a44.74 44.74 0 0 0-4.07-8.32c-3.88-5.87-9.09-8-15.73-7.34l-5.36.49a15.58 15.58 0 0 0-1.82.14c-2.6.55-5.2 1.09-7.77 1.75a23 23 0 0 0-4 1.49c-2.23 1.07-4.42 2.22-6.57 3.43-3.2 1.79-6.44 3.51-9.49 5.53a53 53 0 0 0-5.58 4.72c-2.22 2-4.64 2.06-7.35 1.15-4.94-1.67-11.85-.41-14.56 6.76a17.48 17.48 0 0 0-.75 6.85 4.28 4.28 0 0 1-3.57 4 34.41 34.41 0 0 0-13.07 3.88c-3.06 1.49-5.77 3.46-7.31 6.65-1.35 2.81-2.81 5.57-3.93 8.47a14.75 14.75 0 0 0-.42 10.47l2.08 5.76c1 2.45-.52 6-3.66 5.61a5.34 5.34 0 0 0-1.19.08c-3.6.39-6.73 1.93-9.85 3.69a12.55 12.55 0 0 0-5.85 7c-.79 2.22-1.11 4.61-1.8 6.89a8.81 8.81 0 0 0 .36 6c1 2.55 2 5.1 3.16 7.59 1.42 3.11 4.12 4.89 7.13 6.12a19.15 19.15 0 0 0 5.16 1.16c2.9.31 4.67 2.08 6.14 4.3 1.71 2.6 3.24 5.34 5.61 7.43 2.13 1.88 4.25 3.76 6.47 5.51a30.18 30.18 0 0 0 4.72 3.13 63.39 63.39 0 0 0 7.33 3.3 30.27 30.27 0 0 0 7 1.95 87.19 87.19 0 0 0 11 .39 26.88 26.88 0 0 0 5.27-.94c1.1-.24 2.15-.77 3.25-.9a14.75 14.75 0 0 0 6.15-1.94 5.93 5.93 0 0 1 6.64-.11 2.32 2.32 0 0 0 1.27.44 5.57 5.57 0 0 0 4.38-2.31 19.92 19.92 0 0 0 1.46-2.64 74.89 74.89 0 0 0 1.78-4.11c.55-1.39 1-2.82 1.59-4.18a15.61 15.61 0 0 1 1.68-3 6.78 6.78 0 0 1 4.59-2.6 19.37 19.37 0 0 0 8.58-3.8 30 30 0 0 1 9-4.33c4.83-1.48 9.8-2.59 14.32-5a4.72 4.72 0 0 1 1.82-.57 8 8 0 0 0 4.15-1.77 12.67 12.67 0 0 1 1.76-1.15 161 161 0 0 1 18.2-7.48 19.57 19.57 0 0 1 10.1-.75 9.65 9.65 0 0 0 5.43-.25 16.27 16.27 0 0 1 10.4-.59 2 2 0 0 0 1.22 0c1.43-.71 2.77-1.5 4.43-2.38z"/><path d="M258 184.49l-4.4 2.37a2 2 0 0 1-1.22 0 16.27 16.27 0 0 0-10.4.59 9.65 9.65 0 0 1-5.43.25 19.57 19.57 0 0 0-10.1.75 161 161 0 0 0-18.2 7.48 12.67 12.67 0 0 0-1.76 1.15 8 8 0 0 1-4.15 1.77 4.72 4.72 0 0 0-1.82.57c-4.52 2.4-9.49 3.51-14.32 5a30 30 0 0 0-9 4.33 19.37 19.37 0 0 1-8.58 3.8 6.78 6.78 0 0 0-4.59 2.6 15.61 15.61 0 0 0-1.68 3c-.61 1.36-1 2.8-1.59 4.18l-1.78 4.11a19.92 19.92 0 0 1-1.46 2.64 5.57 5.57 0 0 1-4.38 2.31 2.32 2.32 0 0 1-1.27-.44 5.93 5.93 0 0 0-6.64.11A14.75 14.75 0 0 1 139 233c-1.1.13-2.15.66-3.25.9a26.88 26.88 0 0 1-5.27.94 87.19 87.19 0 0 1-11-.39 30.27 30.27 0 0 1-7-1.95 63.39 63.39 0 0 1-7.33-3.3 30.18 30.18 0 0 1-4.72-3.13c-2.22-1.75-4.34-3.63-6.47-5.51-2.37-2.09-3.9-4.83-5.61-7.43-1.47-2.22-3.24-4-6.14-4.3a19.15 19.15 0 0 1-5.21-1.19c-3-1.23-5.71-3-7.13-6.12-1.13-2.49-2.15-5-3.16-7.59a8.81 8.81 0 0 1-.36-6c.69-2.28 1-4.67 1.8-6.89a12.55 12.55 0 0 1 5.85-7c3.12-1.76 6.25-3.3 9.85-3.69a5.34 5.34 0 0 1 1.19-.08c3.14.35 4.62-3.16 3.66-5.61-.74-1.9-1.4-3.84-2.08-5.76a14.75 14.75 0 0 1 .42-10.47c1.12-2.9 2.58-5.66 3.93-8.47 1.54-3.19 4.25-5.16 7.31-6.65a34.41 34.41 0 0 1 13.07-3.88 4.28 4.28 0 0 0 3.57-4 17.48 17.48 0 0 1 .75-6.85c2.71-7.17 9.62-8.43 14.56-6.76 2.71.91 5.13.8 7.35-1.15a53 53 0 0 1 5.62-4.67c3.05-2 6.29-3.74 9.49-5.53 2.15-1.21 4.34-2.36 6.57-3.43a23 23 0 0 1 4-1.49c2.57-.66 5.17-1.2 7.77-1.75a15.58 15.58 0 0 1 1.82-.14l5.36-.49c6.64-.69 11.85 1.47 15.73 7.34a44.74 44.74 0 0 1 4.11 8.36c1.17 3 3.58 4.34 6.34 2.94 6.81-3.44 14.58 1.92 16.18 8.53.36 1.45.61 2.93.83 4.41s2.41 3.55 3.94 3.57c2.07 0 4.17-.14 6.22.07 5.91.6 11 2.9 14.8 7.61 1.51 1.89 2.17 4.22 3 6.47a27.07 27.07 0 0 1 1.61 12l-.41 3.53a3.6 3.6 0 0 0 1.24 3.12 19.78 19.78 0 0 1 3.62 4.82 6.57 6.57 0 0 1-2.23 8.93 10.36 10.36 0 0 0-2.06 1.8c-.69.74-.57 3.2.12 3.95a5.63 5.63 0 0 0 2.53 1.74 17.18 17.18 0 0 1 2.63 1.27c.42.19.86.46 1.59.86z" fill="#9b9a9d"/><path d="M286.9 244c-4.5.06-8.28-1.73-11.75-4.39l-1.75-1.34a1.84 1.84 0 0 0-2.37 0 6.7 6.7 0 0 0-1.17 1.15 17.18 17.18 0 0 1-14 7c-2.31 0-4.62-.05-6.93-.09-3.36-.07-6-1.68-8.53-3.75a16.06 16.06 0 0 1-4.4-5.32 3.62 3.62 0 0 0-.92-1.11 1.39 1.39 0 0 0-2.05-.07c-.56.53-1.07 1.09-1.62 1.61-1.69 1.58-3.31 3.26-5.12 4.69a56.19 56.19 0 0 1-5.65 3.72c-2.94 1.77-6.23 2.33-9.59 2.72a33.62 33.62 0 0 1-18-3 13.38 13.38 0 0 1-6.54-6.27c-.18-.35-.34-.71-.54-1-1-1.65-2.37-1.69-3.44-.12a18.67 18.67 0 0 1-1.31 1.76c-2.15 2.47-5.12 3.4-8.13 4.24a18.34 18.34 0 0 1-9.22-.07c-1.13-.27-2.28-.45-3.39-.76a11.81 11.81 0 0 1-6.57-5.26 17.46 17.46 0 0 1-3.27-7.76 19 19 0 0 1 .3-5.88 41.64 41.64 0 0 1 2.3-6.72c1.34-3.31 3.95-5.23 7.26-6.35a32.28 32.28 0 0 0 4-1.65 5.93 5.93 0 0 0 2.84-3.11c2-4.72 5.84-7.37 10.48-8.85a45.47 45.47 0 0 1 8.24-1.49 8.75 8.75 0 0 1 3.13.46c1.82.47 3 0 3.73-1.76a14.93 14.93 0 0 1 3.75-5.68 15.08 15.08 0 0 1 9.17-3.41 17.9 17.9 0 0 1 2.74 0 12.72 12.72 0 0 1 3.39.64 3.54 3.54 0 0 0 4.29-1 22.42 22.42 0 0 1 7.24-5.21c4.88-2.1 9.89-4 15.31-3.8a46.23 46.23 0 0 1 6.72 1.2l3.6.61a11.1 11.1 0 0 1 2.39.56l10.76 4.79a23.28 23.28 0 0 1 8.17 6.05 5.92 5.92 0 0 0 5.84 2.06 11.07 11.07 0 0 1 7.86 2 20 20 0 0 1 6.2 6.88 5.17 5.17 0 0 0 4.32 2.71 30.39 30.39 0 0 1 6.31 1.75 10.26 10.26 0 0 1 6.88 7.13c.6 2 1.28 3.94 1.75 5.94.56 2.4-.11 4.73-.76 7a56.28 56.28 0 0 1-1.83 5.83 17.12 17.12 0 0 1-7.73 9.05 26.75 26.75 0 0 1-9.57 3.43c-.87.24-1.85.24-2.82.24zm.14-2a10.29 10.29 0 0 0 1.47 0 30.56 30.56 0 0 0 9.68-3.37 13 13 0 0 0 6.17-6.51 87.83 87.83 0 0 0 3.12-9.71 8.18 8.18 0 0 0 .24-2.88c-.18-2.66-1.34-5-2.31-7.46a6.31 6.31 0 0 0-2.44-3.24 20.24 20.24 0 0 0-8.8-3.1 7 7 0 0 1-5.61-3.68 18 18 0 0 0-5.06-5.81 10.83 10.83 0 0 0-7.85-2 5.8 5.8 0 0 1-5.65-1.83 29.16 29.16 0 0 0-9.6-7 74.44 74.44 0 0 0-10.68-4.48c-1.91-.57-4-.54-5.89-1.16a18 18 0 0 0-10.16-.27c-1.91.47-3.76 1.2-5.65 1.77a22.3 22.3 0 0 0-10 6c-2.07 2.17-4.34 2.36-7 1.51a15.05 15.05 0 0 0-3.47-.63 14.62 14.62 0 0 0-6 1.22 8.59 8.59 0 0 0-5.17 4.24c-.43.87-.91 1.72-1.32 2.6a5 5 0 0 1-6.13 2.94 7.94 7.94 0 0 0-2.65-.52 42 42 0 0 0-6.8 1.27c-4.32 1.29-8.1 3.38-10 7.85a9.11 9.11 0 0 1-4.76 4.72c-1.35.62-2.77 1.09-4.17 1.6a8.16 8.16 0 0 0-5.19 4.82c-.82 2.16-1.7 4.32-2.31 6.54a9.13 9.13 0 0 0 0 5.93c.67 1.64 1.38 3.26 2.2 4.83a10.44 10.44 0 0 0 7.34 5.8c1.43.3 2.86.57 4.3.82a6.13 6.13 0 0 0 2.14.24 62.86 62.86 0 0 0 7.06-1.78 8.47 8.47 0 0 0 4.68-3.75 3.91 3.91 0 0 1 2.75-2.23 3.59 3.59 0 0 1 3.85 1.46 18.47 18.47 0 0 1 1.17 1.84 10.53 10.53 0 0 0 4.55 4.85 30.89 30.89 0 0 0 21.17 2.92c5.07-1.1 9.11-4.15 13-7.3a56.93 56.93 0 0 0 4.42-4.5c1-1 3.19-1.35 4.22-.5a9.78 9.78 0 0 1 2.22 2.5 14.61 14.61 0 0 0 3.31 4.1c2.27 1.85 4.63 3.53 7.69 3.69 2.18.11 4.38.18 6.56.11a15.72 15.72 0 0 0 12.5-6.19 9.54 9.54 0 0 1 1.68-1.68 3.6 3.6 0 0 1 1.56-.66 4.47 4.47 0 0 1 4.05 1.2 12.26 12.26 0 0 0 1.65 1.3A18.29 18.29 0 0 0 287 242z"/><path d="M287,242a18.29,18.29,0,0,1-10-3.61,12.26,12.26,0,0,1-1.65-1.3,4.47,4.47,0,0,0-4.05-1.2,3.6,3.6,0,0,0-1.56.66,9.54,9.54,0,0,0-1.68,1.68,15.72,15.72,0,0,1-12.5,6.19c-2.18.07-4.38,0-6.56-.11-3.06-.16-5.42-1.84-7.69-3.69a14.61,14.61,0,0,1-3.31-4.1,9.78,9.78,0,0,0-2.22-2.5c-1-.85-3.18-.54-4.22.5a56.93,56.93,0,0,1-4.42,4.5c-3.93,3.15-8,6.2-13,7.3A30.89,30.89,0,0,1,193,243.41a10.53,10.53,0,0,1-4.55-4.85,18.47,18.47,0,0,0-1.17-1.84,3.59,3.59,0,0,0-3.85-1.46,3.91,3.91,0,0,0-2.75,2.23,8.47,8.47,0,0,1-4.68,3.75,62.86,62.86,0,0,1-7.06,1.78,6.13,6.13,0,0,1-2.14-.24c-1.44-.25-2.87-.52-4.3-.82a10.44,10.44,0,0,1-7.34-5.8c-.82-1.57-1.53-3.19-2.2-4.83a9.13,9.13,0,0,1,0-5.93c.61-2.22,1.49-4.38,2.31-6.54a8.16,8.16,0,0,1,5.19-4.82c1.4-.51,2.82-1,4.17-1.6a9.11,9.11,0,0,0,4.76-4.72c1.89-4.47,5.67-6.56,10-7.85a42,42,0,0,1,6.8-1.27,7.94,7.94,0,0,1,2.65.52,5,5,0,0,0,6.13-2.94c.41-.88.89-1.73,1.32-2.6a8.59,8.59,0,0,1,5.17-4.24,14.62,14.62,0,0,1,6-1.22,15.05,15.05,0,0,1,3.47.63c2.66.85,4.93.66,7-1.51a22.3,22.3,0,0,1,10-6c1.89-.57,3.74-1.3,5.65-1.77a18,18,0,0,1,10.16.27c1.89.62,4,.59,5.89,1.16a74.44,74.44,0,0,1,10.68,4.48,29.16,29.16,0,0,1,9.6,7,5.8,5.8,0,0,0,5.65,1.83,10.83,10.83,0,0,1,7.85,2,18,18,0,0,1,5.06,5.81,7,7,0,0,0,5.61,3.68,20.24,20.24,0,0,1,8.8,3.1,6.31,6.31,0,0,1,2.44,3.24c1,2.42,2.13,4.8,2.31,7.46a8.18,8.18,0,0,1-.24,2.88,87.83,87.83,0,0,1-3.12,9.71,13,13,0,0,1-6.17,6.51,30.56,30.56,0,0,1-9.68,3.37A10.29,10.29,0,0,1,287,242Z" fill="#9b9a9d"/></svg>